<?xml version="1.0" encoding="iso-8859-1"?>
<!-- Generator: Adobe Illustrator 19.0.0, SVG Export Plug-In . SVG Version: 6.00 Build 0)  -->
<svg version="1.1" id="Layer_1" xmlns="http://www.w3.org/2000/svg" xmlns:xlink="http://www.w3.org/1999/xlink" x="0px" y="0px"
	 viewBox="0 0 512 512" style="enable-background:new 0 0 512 512;" xml:space="preserve">
<polygon style="fill:#00B4D7;" points="255.999,14.093 415.438,234.008 255.999,234.008 96.561,234.008 "/>
<polygon style="fill:#0093C4;" points="96.561,234.008 255.999,234.008 255.999,14.093 "/>
<path d="M431.653,242.281H80.346L255.999,0L431.653,242.281z M112.776,225.736h286.446L255.999,28.187L112.776,225.736z"/>
<rect x="200.992" y="66.859" transform="matrix(-0.8137 -0.5813 0.5813 -0.8137 299.4396 371.5689)" style="fill:#FFFFFF;" width="16.544" height="141.88"/>
<polygon style="fill:#00B4D7;" points="255.999,497.906 96.561,277.992 255.999,277.992 415.438,277.992 "/>
<polygon style="fill:#0093C4;" points="415.438,277.992 255.999,277.992 255.999,497.906 "/>
<path d="M255.999,512L80.346,269.719h351.308L255.999,512z M112.776,286.264l143.224,197.55l143.223-197.55H112.776z"/>
<rect x="294.444" y="303.257" transform="matrix(-0.8137 -0.5813 0.5813 -0.8137 331.514 854.6459)" style="fill:#FFFFFF;" width="16.544" height="141.88"/>
<g>
</g>
<g>
</g>
<g>
</g>
<g>
</g>
<g>
</g>
<g>
</g>
<g>
</g>
<g>
</g>
<g>
</g>
<g>
</g>
<g>
</g>
<g>
</g>
<g>
</g>
<g>
</g>
<g>
</g>
</svg>
